<?xml version="1.0" standalone="no"?>
<!DOCTYPE svg PUBLIC "-//W3C//DTD SVG 1.1//EN" "http://www.w3.org/Graphics/SVG/1.1/DTD/svg11.dtd">
<svg xmlns="http://www.w3.org/2000/svg" width="24" height="24" viewBox="0 0 24 24" fill="none">
<path fill-rule="evenodd" clip-rule="evenodd" d="M12 6.62869C13.7697 3.55733 18.1553 3.19888 20.381 6.06762L20.6904 6.46634C22.5728 8.89252 22.301 12.3524 20.0628 14.4549L13.0927 21.0026C12.9885 21.1005 12.8747 21.2075 12.7673 21.2902C12.6438 21.3853 12.4712 21.4954 12.2407 21.5406C12.0818 21.5718 11.9183 21.5718 11.7593 21.5406C11.5288 21.4954 11.3562 21.3853 11.2327 21.2902C11.1254 21.2076 11.0116 21.1006 10.9075 21.0027L3.93718 14.4549C1.69905 12.3524 1.42726 8.89253 3.30964 6.46635L3.61899 6.06762C5.84474 3.19888 10.2303 3.55733 12 6.62869ZM16.0083 11.0515C16.3129 10.7708 16.3322 10.2963 16.0515 9.99175C15.7708 9.68716 15.2963 9.66781 14.9917 9.94853L11.1317 13.5061L9.51928 11.9589C9.2204 11.6721 8.74563 11.6819 8.45884 11.9808C8.17205 12.2796 8.18185 12.7544 8.48073 13.0412L10.602 15.0767C10.888 15.3511 11.3382 15.3557 11.6296 15.0871L16.0083 11.0515Z" fill="#000000"/>
</svg>