<svg width="7" height="5" viewBox="0 0 7 5" fill="none" xmlns="http://www.w3.org/2000/svg">
<path d="M3.5 0.483696C2.98297 0.483696 2.47755 0.587288 2.04766 0.781372C1.61777 0.975456 1.28271 1.25132 1.08485 1.57406C0.886996 1.89681 0.835229 2.25196 0.936096 2.59459C1.03696 2.93722 1.28593 3.25194 1.65153 3.49897C2.01712 3.74599 2.48291 3.91421 2.99 3.98237C3.4971 4.05052 4.02271 4.01554 4.50038 3.88185C4.97805 3.74817 5.38632 3.52177 5.67357 3.23131C5.96081 2.94084 6.11412 2.59934 6.11412 2.25C6.11412 1.78155 5.83871 1.33228 5.34846 1.00103C4.85822 0.669788 4.19331 0.483696 3.5 0.483696Z" fill="white"/>
</svg>
